<svg width="228" height="166" viewBox="0 0 228 166" fill="none" xmlns="http://www.w3.org/2000/svg">
<mask id="mask0_884_5065" style="mask-type:luminance" maskUnits="userSpaceOnUse" x="0" y="0" width="54" height="128">
<path d="M52.2225 127.572C52.4053 127.588 52.5893 127.564 52.762 127.502C52.9346 127.44 53.0917 127.341 53.2225 127.213C53.3513 127.091 53.454 126.944 53.5245 126.781C53.5949 126.618 53.6317 126.443 53.6325 126.265V1.85246C53.6373 1.66691 53.6034 1.48238 53.5328 1.31063C53.4622 1.13889 53.3565 0.98369 53.2225 0.854927C53.0901 0.72943 52.9325 0.633412 52.7601 0.573224C52.5877 0.513036 52.4045 0.490048 52.2225 0.505787C49.9104 0.633569 47.6089 0.910131 45.3325 1.33374C35.3355 3.18431 26.0412 7.74168 18.4663 14.5074C10.8913 21.273 5.32737 29.9864 2.3831 39.6945C-0.561183 49.4025 -0.77242 59.7313 1.77249 69.5511C4.3174 79.3708 9.52044 88.3033 16.8125 95.3716L16.8725 95.4514C22.4232 100.854 26.7294 107.396 29.4925 114.624C30.2837 116.707 30.9122 118.848 31.3725 121.028C31.5225 121.806 31.6225 122.405 31.6725 122.814C31.6725 123.013 31.6925 123.163 31.7325 123.263V123.392C31.7533 123.649 31.8499 123.894 32.01 124.097C32.1702 124.299 32.3868 124.45 32.6325 124.53C39.2325 126.684 45.7725 127.273 52.2225 127.572Z" fill="white"/>
</mask>
<g mask="url(#mask0_884_5065)">
<path d="M14.893 59.6196L20.783 49.3151L3.29297 53.0259L14.893 59.6196Z" fill="url(#paint0_linear_884_5065)"/>
<path d="M72.3428 17.0348L58.4428 -21.3304L53.3828 13.7031L72.3428 17.0348Z" fill="url(#paint1_linear_884_5065)"/>
<path d="M14.893 59.6196L3.29297 53.0259L3.80296 61.5349L14.893 59.6196Z" fill="url(#paint2_linear_884_5065)"/>
<path d="M3.29309 53.0259L0.413086 51.6194L3.80309 61.5349L3.29309 53.0259Z" fill="url(#paint3_linear_884_5065)"/>
<path d="M-14.3877 74.7224L3.80229 61.5349L12.2023 83.1715L-14.3877 74.7224Z" fill="url(#paint4_linear_884_5065)"/>
<path d="M3.80273 61.5349L14.8927 59.6196L16.0427 70.7222L3.80273 61.5349Z" fill="url(#paint5_linear_884_5065)"/>
<path d="M12.2027 83.1715L3.80273 61.5349L16.0427 70.7222L12.2027 83.1715Z" fill="url(#paint6_linear_884_5065)"/>
<path d="M30.7125 17.3141L53.3825 13.703L24.8125 1.0343L30.7125 17.3141Z" fill="url(#paint7_linear_884_5065)"/>
<path d="M30.7129 17.3141L15.2129 6.04194L24.8129 1.0343L30.7129 17.3141Z" fill="url(#paint8_linear_884_5065)"/>
<path d="M-5.60742 12.2965L12.3926 5.71277L8.86258 -0.0928955L-5.60742 12.2965Z" fill="url(#paint9_linear_884_5065)"/>
<path d="M-5.60683 12.2965L-9.00684 -1.32983L8.86317 -0.0928904L-5.60683 12.2965Z" fill="url(#paint10_linear_884_5065)"/>
<path d="M15.2123 6.04196L12.3923 5.71277L8.8623 -0.0928955L15.2123 6.04196Z" fill="url(#paint11_linear_884_5065)"/>
<path d="M15.2123 6.04196L24.8123 1.03432L8.8623 -0.0928955L15.2123 6.04196Z" fill="url(#paint12_linear_884_5065)"/>
<path d="M24.8123 1.03429L28.1423 -12.8813L8.8623 -0.0929251L24.8123 1.03429Z" fill="url(#paint13_linear_884_5065)"/>
<path d="M28.593 71.6798L16.043 70.7222L30.323 77.3059L28.593 71.6798Z" fill="url(#paint14_linear_884_5065)"/>
<path d="M26.8027 91.5108L33.6527 89.4759L30.3227 77.3059L26.8027 91.5108Z" fill="url(#paint15_linear_884_5065)"/>
<path d="M26.8031 91.5108L12.2031 83.1714L30.3231 77.3059L26.8031 91.5108Z" fill="url(#paint16_linear_884_5065)"/>
<path d="M12.2031 83.1714L16.0431 70.7222L30.3231 77.3059L12.2031 83.1714Z" fill="url(#paint17_linear_884_5065)"/>
<path d="M28.5928 71.6799L35.0628 58.4924L54.1528 75.7299L28.5928 71.6799Z" fill="url(#paint18_linear_884_5065)"/>
<path d="M57.2925 100.179L41.6025 97.4762L54.1525 75.7299L57.2925 100.179Z" fill="url(#paint19_linear_884_5065)"/>
<path d="M41.6023 97.4762L33.6523 89.4759L54.1523 75.7299L41.6023 97.4762Z" fill="url(#paint20_linear_884_5065)"/>
<path d="M33.6523 89.4759L30.3223 77.306L54.1523 75.7299L33.6523 89.4759Z" fill="url(#paint21_linear_884_5065)"/>
<path d="M30.3228 77.3059L28.5928 71.6798L54.1528 75.7298L30.3228 77.3059Z" fill="url(#paint22_linear_884_5065)"/>
<path d="M-13.2975 131.392L-13.9375 124.859L11.8125 103.731L-13.2975 131.392Z" fill="url(#paint23_linear_884_5065)"/>
<path d="M-13.2969 131.392L38.4631 115.003L11.8131 103.731L-13.2969 131.392Z" fill="url(#paint24_linear_884_5065)"/>
<path d="M38.4625 115.003L28.2725 98.3241L11.8125 103.731L38.4625 115.003Z" fill="url(#paint25_linear_884_5065)"/>
<path d="M28.2725 98.324L26.8025 91.5109L11.8125 103.731L28.2725 98.324Z" fill="url(#paint26_linear_884_5065)"/>
<path d="M11.8131 103.731L26.8031 91.511L8.16309 89.3064L11.8131 103.731Z" fill="url(#paint27_linear_884_5065)"/>
<path d="M26.8031 91.5109L12.2031 83.1715L8.16309 89.3064L26.8031 91.5109Z" fill="url(#paint28_linear_884_5065)"/>
<path d="M12.2023 83.1714L-14.3877 74.7223L8.16229 89.3063L12.2023 83.1714Z" fill="url(#paint29_linear_884_5065)"/>
<path d="M-14.3874 74.7224L3.80261 61.5349L-16.8174 57.9338L-14.3874 74.7224Z" fill="url(#paint30_linear_884_5065)"/>
<path d="M3.80261 61.5349L0.412613 51.6194L-16.8174 57.9338L3.80261 61.5349Z" fill="url(#paint31_linear_884_5065)"/>
<path d="M0.412613 51.6194L-2.66737 47.0607L-16.8174 57.9338L0.412613 51.6194Z" fill="url(#paint32_linear_884_5065)"/>
<path d="M72.3428 17.0348L53.3828 13.703L74.9128 25.035L72.3428 17.0348Z" fill="url(#paint33_linear_884_5065)"/>
<path d="M28.593 71.6799L35.063 58.4925L24.623 57.6545L28.593 71.6799Z" fill="url(#paint34_linear_884_5065)"/>
<path d="M14.8926 59.6196L20.7826 49.3151L24.6226 57.6545L14.8926 59.6196Z" fill="url(#paint35_linear_884_5065)"/>
<path d="M35.0622 58.4924L20.7822 49.3151L24.6222 57.6545L35.0622 58.4924Z" fill="url(#paint36_linear_884_5065)"/>
<path d="M38.4629 115.003L52.8729 112.01L53.5129 114.325L38.4629 115.003Z" fill="url(#paint37_linear_884_5065)"/>
<path d="M74.9127 131.223L57.2927 100.179L53.5127 114.325L74.9127 131.223Z" fill="url(#paint38_linear_884_5065)"/>
<path d="M52.873 112.01L57.293 100.179L53.513 114.325L52.873 112.01Z" fill="url(#paint39_linear_884_5065)"/>
<path d="M35.0625 58.4925L57.9325 53.6444L38.3925 20.0175L35.0625 58.4925Z" fill="url(#paint40_linear_884_5065)"/>
<path d="M35.0622 58.4925L20.7822 49.3151L38.3922 20.0175L35.0622 58.4925Z" fill="url(#paint41_linear_884_5065)"/>
<path d="M20.7822 49.3151L30.7122 17.3141L38.3922 20.0174L20.7822 49.3151Z" fill="url(#paint42_linear_884_5065)"/>
<path d="M30.7129 17.3141L53.3829 13.703L38.3929 20.0174L30.7129 17.3141Z" fill="url(#paint43_linear_884_5065)"/>
<path d="M-13.2969 131.392L38.4631 115.003L45.1831 121.477L-13.2969 131.392Z" fill="url(#paint44_linear_884_5065)"/>
<path d="M38.4629 115.003L53.5129 114.325L45.1829 121.477L38.4629 115.003Z" fill="url(#paint45_linear_884_5065)"/>
<path d="M28.2725 98.3241L41.6025 97.4761L28.8525 95.0521L28.2725 98.3241Z" fill="url(#paint46_linear_884_5065)"/>
<path d="M28.2727 98.324L26.8027 91.5109L28.8527 95.0521L28.2727 98.324Z" fill="url(#paint47_linear_884_5065)"/>
<path d="M41.6025 97.4762L33.6525 89.476L28.8525 95.0522L41.6025 97.4762Z" fill="url(#paint48_linear_884_5065)"/>
<path d="M26.8027 91.5109L33.6527 89.476L28.8527 95.0522L26.8027 91.5109Z" fill="url(#paint49_linear_884_5065)"/>
<path d="M3.29309 53.0259L0.413086 51.6193L7.20309 41.4844L3.29309 53.0259Z" fill="url(#paint50_linear_884_5065)"/>
<path d="M3.29297 53.0259L20.783 49.315L7.20297 41.4844L3.29297 53.0259Z" fill="url(#paint51_linear_884_5065)"/>
<path d="M0.412994 51.6193L-2.66699 47.0606L7.203 41.4844L0.412994 51.6193Z" fill="url(#paint52_linear_884_5065)"/>
<path d="M20.7831 49.3151L30.7131 17.3141L7.20312 41.4844L20.7831 49.3151Z" fill="url(#paint53_linear_884_5065)"/>
<path d="M-2.66707 47.0607L-3.49707 41.3647L7.20293 41.4845L-2.66707 47.0607Z" fill="url(#paint54_linear_884_5065)"/>
<path d="M-3.49715 41.3646L-11.8271 26.0425L7.20285 41.4844L-3.49715 41.3646Z" fill="url(#paint55_linear_884_5065)"/>
<path d="M53.3825 13.703L24.8125 1.03425L35.7725 -8.43237L53.3825 13.703Z" fill="url(#paint56_linear_884_5065)"/>
<path d="M53.3825 13.7031L58.4425 -21.3304L35.7725 -8.43229L53.3825 13.7031Z" fill="url(#paint57_linear_884_5065)"/>
<path d="M24.8125 1.03429L28.1425 -12.8813L35.7725 -8.43233L24.8125 1.03429Z" fill="url(#paint58_linear_884_5065)"/>
<path d="M-13.9375 124.859L11.8125 103.731L-2.4675 97.4263L-13.9375 124.859Z" fill="url(#paint59_linear_884_5065)"/>
<path d="M11.8122 103.731L8.16222 89.3064L-2.46777 97.4263L11.8122 103.731Z" fill="url(#paint60_linear_884_5065)"/>
<path d="M8.16229 89.3063L-14.3877 74.7223L-2.4677 97.4262L8.16229 89.3063Z" fill="url(#paint61_linear_884_5065)"/>
<path d="M57.9326 53.6444L38.3926 20.0175L64.9126 49.8139L57.9326 53.6444Z" fill="url(#paint62_linear_884_5065)"/>
<path d="M74.9128 25.035L53.3828 13.703L64.9128 49.8138L74.9128 25.035Z" fill="url(#paint63_linear_884_5065)"/>
<path d="M38.3926 20.0174L53.3826 13.703L64.9126 49.8138L38.3926 20.0174Z" fill="url(#paint64_linear_884_5065)"/>
<path d="M38.4629 115.003L52.8729 112.01L40.5129 105.985L38.4629 115.003Z" fill="url(#paint65_linear_884_5065)"/>
<path d="M38.4625 115.003L28.2725 98.3241L40.5125 105.985L38.4625 115.003Z" fill="url(#paint66_linear_884_5065)"/>
<path d="M52.8727 112.01L57.2927 100.179L40.5127 105.985L52.8727 112.01Z" fill="url(#paint67_linear_884_5065)"/>
<path d="M57.2927 100.18L41.6027 97.4762L40.5127 105.985L57.2927 100.18Z" fill="url(#paint68_linear_884_5065)"/>
<path d="M28.2725 98.3241L41.6025 97.4762L40.5125 105.985L28.2725 98.3241Z" fill="url(#paint69_linear_884_5065)"/>
<path d="M35.0625 58.4924L57.9325 53.6444L59.2125 63.7295L35.0625 58.4924Z" fill="url(#paint70_linear_884_5065)"/>
<path d="M54.1525 75.7299L35.0625 58.4924L59.2125 63.7295L54.1525 75.7299Z" fill="url(#paint71_linear_884_5065)"/>
<path d="M7.20285 41.4844L-11.8271 26.0426L10.3428 17.9924L7.20285 41.4844Z" fill="url(#paint72_linear_884_5065)"/>
<path d="M7.20312 41.4844L30.7131 17.3141L10.3431 17.9924L7.20312 41.4844Z" fill="url(#paint73_linear_884_5065)"/>
<path d="M-11.8271 26.0425L-11.4371 17.6532L10.3428 17.9924L-11.8271 26.0425Z" fill="url(#paint74_linear_884_5065)"/>
<path d="M-11.4375 17.6533L-5.6075 12.2965L10.3425 17.9924L-11.4375 17.6533Z" fill="url(#paint75_linear_884_5065)"/>
<path d="M30.7128 17.314L15.2128 6.04187L10.3428 17.9924L30.7128 17.314Z" fill="url(#paint76_linear_884_5065)"/>
<path d="M-5.60742 12.2965L12.3926 5.71277L10.3426 17.9924L-5.60742 12.2965Z" fill="url(#paint77_linear_884_5065)"/>
<path d="M15.2128 6.04196L12.3928 5.71277L10.3428 17.9924L15.2128 6.04196Z" fill="url(#paint78_linear_884_5065)"/>
<path d="M-13.2969 131.392L45.1831 121.477L59.9231 129.308L-13.2969 131.392Z" fill="url(#paint79_linear_884_5065)"/>
<path d="M45.1826 121.477L53.5126 114.325L59.9226 129.308L45.1826 121.477Z" fill="url(#paint80_linear_884_5065)"/>
<path d="M74.9127 131.223L53.5127 114.325L59.9227 129.308L74.9127 131.223Z" fill="url(#paint81_linear_884_5065)"/>
<path d="M28.593 71.6798L16.043 70.7222L19.563 62.2731L28.593 71.6798Z" fill="url(#paint82_linear_884_5065)"/>
<path d="M28.5925 71.6799L24.6225 57.6545L19.5625 62.2731L28.5925 71.6799Z" fill="url(#paint83_linear_884_5065)"/>
<path d="M16.0426 70.7222L14.8926 59.6196L19.5626 62.2731L16.0426 70.7222Z" fill="url(#paint84_linear_884_5065)"/>
<path d="M14.8926 59.6197L24.6226 57.6545L19.5626 62.2731L14.8926 59.6197Z" fill="url(#paint85_linear_884_5065)"/>
</g>
<path d="M106.523 52.1482C104.748 50.4853 102.558 49.3279 100.183 48.7965C100.722 48.4173 101.236 48.0042 101.723 47.5595C103.154 46.2584 104.299 44.6753 105.086 42.9102C105.872 41.1451 106.283 39.2364 106.293 37.3048C106.293 36.8958 106.293 36.4669 106.233 36.0479C106.038 32.3585 104.412 28.8894 101.698 26.3756C98.9839 23.8619 95.3953 22.5009 91.6925 22.5812C91.2225 22.5812 90.7625 22.5812 90.2925 22.641C89.4003 18.2086 87.3277 14.0977 84.2925 10.7404C80.8807 6.82531 76.4617 3.91415 71.5125 2.32121C67.3439 1.013 62.992 0.379845 58.6225 0.445836C58.4493 0.445057 58.2776 0.479105 58.1178 0.545946C57.9581 0.612787 57.8134 0.71105 57.6925 0.834875C57.4506 1.0796 57.3143 1.40895 57.3125 1.75261V126.265C57.3115 126.442 57.3464 126.617 57.4152 126.78C57.4839 126.943 57.5851 127.09 57.7125 127.213C57.8441 127.34 58.0013 127.438 58.1737 127.5C58.3462 127.562 58.5298 127.586 58.7125 127.572C65.1525 127.273 71.7125 126.684 78.2825 124.579C78.5366 124.498 78.7592 124.34 78.9202 124.127C79.0813 123.915 79.1728 123.658 79.1825 123.392C79.1825 123.302 79.5525 115.043 87.0025 103.99C87.7014 103.076 88.3172 102.101 88.8425 101.077C90.0151 98.9734 90.6665 96.6203 90.7425 94.2143C90.753 92.8117 90.4489 91.4245 89.8525 90.1543L89.7925 90.0346C90.3195 90.1059 90.8507 90.1426 91.3825 90.1444C95.1789 90.1069 98.8309 88.688 101.653 86.1542C103.058 84.8966 104.206 83.3789 105.033 81.6852C105.889 79.9365 106.334 78.0155 106.333 76.0691C106.331 75.1609 106.238 74.2551 106.053 73.3658C105.942 72.8659 105.801 72.3729 105.633 71.8894C107.11 70.7414 108.312 69.2795 109.153 67.61C110.1 65.7316 110.593 63.6578 110.593 61.555C110.612 59.7902 110.26 58.041 109.559 56.4206C108.857 54.8002 107.823 53.3447 106.523 52.1482ZM106.773 66.3531C106.198 67.484 105.418 68.4987 104.473 69.3457C103.746 68.1202 102.839 67.0106 101.783 66.0538C99.6787 64.1148 97.016 62.8862 94.1725 62.5425C93.8264 62.5042 93.4792 62.6045 93.2073 62.8215C92.9354 63.0385 92.761 63.3544 92.7225 63.6996C92.6841 64.0449 92.7847 64.3913 93.0022 64.6625C93.2198 64.9338 93.5364 65.1077 93.8825 65.1461C96.173 65.4478 98.3162 66.4408 100.025 67.992C101.734 69.5431 102.926 71.5783 103.443 73.8247C103.926 76.0704 103.641 78.4133 102.633 80.4782C102.473 80.8074 102.283 81.1366 102.093 81.4758H101.733C100.588 81.4398 99.4597 81.1964 98.4025 80.7575C96.119 79.8228 94.1099 78.3266 92.5625 76.4083C91.8939 75.5818 91.2761 74.7157 90.7125 73.8147C90.3025 73.2062 89.8725 72.5777 89.3825 71.9593V64.2782C90.1838 63.9728 90.8525 63.397 91.2725 62.6509C91.6925 61.9048 91.8373 61.0355 91.6816 60.194C91.5259 59.3525 91.0796 58.592 90.4203 58.0446C89.761 57.4972 88.9303 57.1975 88.0725 57.1975C87.2147 57.1975 86.384 57.4972 85.7247 58.0446C85.0654 58.592 84.6192 59.3525 84.4635 60.194C84.3078 61.0355 84.4525 61.9048 84.8725 62.6509C85.2925 63.397 85.9612 63.9728 86.7625 64.2782V69.4255C85.7169 68.6325 84.5827 67.963 83.3825 67.4304C80.6399 66.2473 77.6806 65.646 74.6925 65.6648C73.4543 65.6553 72.2172 65.742 70.9925 65.9242C70.6491 65.9784 70.3413 66.1665 70.1369 66.4471C69.9324 66.7277 69.8482 67.0779 69.9025 67.4205C69.9569 67.7631 70.1455 68.0701 70.4268 68.274C70.7081 68.4779 71.0591 68.562 71.4025 68.5078C72.4874 68.3364 73.5841 68.2497 74.6825 68.2484C77.3028 68.2279 79.8985 68.7545 82.3025 69.7946C83.9286 70.4993 85.3998 71.5161 86.6325 72.7872C87.3332 73.5568 87.9624 74.3881 88.5125 75.2711C89.1232 76.2567 89.791 77.206 90.5125 78.1141C92.3537 80.3723 94.7377 82.1292 97.4425 83.2215C98.283 83.5363 99.1497 83.7766 100.033 83.9397C97.6678 86.176 94.5505 87.4498 91.2925 87.5109C89.7245 87.511 88.1753 87.1706 86.7525 86.5133L86.6425 86.4235C86.4867 86.2978 86.3005 86.2152 86.1025 86.1841C85.5637 85.8926 85.0487 85.559 84.5625 85.1866C83.2858 84.1145 82.2644 82.7723 81.5725 81.2573C80.8807 79.7424 80.5356 78.0928 80.5625 76.4282C80.5604 75.3162 80.7084 74.209 81.0025 73.1364C81.0496 72.9713 81.0633 72.7986 81.0429 72.6282C81.0225 72.4578 80.9684 72.2931 80.8838 72.1438C80.7991 71.9944 80.6856 71.8632 80.5498 71.7579C80.414 71.6526 80.2585 71.5753 80.0925 71.5303C79.7584 71.4384 79.4013 71.4823 79.0995 71.6524C78.7978 71.8225 78.5759 72.1051 78.4825 72.4381C78.1253 73.7382 77.9437 75.0801 77.9425 76.4282C77.9268 78.7722 78.4974 81.083 79.6025 83.1516H71.3925C71.0862 82.3495 70.5078 81.6798 69.7579 81.259C69.0079 80.8381 68.1338 80.6927 67.2876 80.8481C66.4413 81.0034 65.6764 81.4497 65.1258 82.1093C64.5751 82.7688 64.2736 83.6001 64.2736 84.4584C64.2736 85.3167 64.5751 86.148 65.1258 86.8075C65.6764 87.4671 66.4413 87.9134 67.2876 88.0687C68.1338 88.2241 69.0079 88.0787 69.7579 87.6578C70.5078 87.237 71.0862 86.5673 71.3925 85.7652H81.4525C81.9288 86.2607 82.4437 86.7176 82.9925 87.1318C83.7367 87.7364 84.5448 88.2582 85.4025 88.688C86.2782 89.3711 86.9862 90.2445 87.4725 91.2417C87.908 92.1575 88.127 93.1609 88.1125 94.1744C88.0313 96.1557 87.4832 98.09 86.5125 99.8205C86.1718 100.464 85.798 101.09 85.3925 101.696C85.2425 101.915 85.1125 102.085 85.0225 102.205L84.9325 102.324L84.8725 102.414C83.5726 104.338 82.3872 106.337 81.3225 108.399H81.2225C79.6979 108.459 78.1901 108.063 76.8925 107.262C76.1668 106.79 75.5416 106.18 75.0525 105.467C74.442 104.553 73.9954 103.54 73.7325 102.474C73.7325 102.354 73.6825 102.234 73.6525 102.125C74.3651 101.81 74.9582 101.277 75.3449 100.602C75.7317 99.9273 75.8918 99.1467 75.8019 98.3747C75.7119 97.6026 75.3767 96.8795 74.8452 96.3111C74.3136 95.7428 73.6137 95.359 72.8478 95.216C72.082 95.073 71.2903 95.1782 70.5887 95.5163C69.8871 95.8544 69.3123 96.4076 68.9485 97.0949C68.5847 97.7823 68.451 98.5677 68.5669 99.3363C68.6827 100.105 69.0421 100.816 69.5925 101.367C69.9912 101.761 70.4779 102.055 71.0125 102.225C71.236 103.569 71.6821 104.867 72.3325 106.065C73.0701 107.45 74.1468 108.627 75.4625 109.487C76.8312 110.336 78.3853 110.842 79.9925 110.963C78.2921 114.552 77.1394 118.375 76.5725 122.305C71.1394 123.843 65.5375 124.711 59.8925 124.889V49.4349C60.1025 49.7541 60.3225 50.0733 60.5625 50.4324C61.7848 52.1321 63.3102 53.5929 65.0625 54.7418C66.8084 55.8668 68.8024 56.5515 70.8725 56.7368C71.1807 57.5344 71.759 58.1993 72.507 58.6161C73.2551 59.033 74.1258 59.1756 74.9682 59.0193C75.8107 58.8629 76.5717 58.4175 77.1194 57.7601C77.6671 57.1027 77.9669 56.2749 77.9669 55.4201C77.9669 54.5653 77.6671 53.7375 77.1194 53.0801C76.5717 52.4227 75.8107 51.9773 74.9682 51.8209C74.1258 51.6645 73.2551 51.8072 72.507 52.224C71.759 52.6409 71.1807 53.3058 70.8725 54.1033C69.2873 53.947 67.7621 53.4171 66.4225 52.5572C64.3001 51.1126 62.5576 49.1794 61.3425 46.9211C60.8991 46.1299 60.5017 45.3139 60.1525 44.4771C60.0225 44.1679 59.9325 43.9185 59.8725 43.7489V43.6891V3.07933C63.5245 3.12684 67.1497 3.70827 70.6325 4.80507C75.1521 6.24007 79.1892 8.88689 82.3025 12.4562C86.6525 17.4439 88.0225 22.4316 88.0325 26.4217C88.0399 27.838 87.848 29.2483 87.4625 30.6114C87.2063 31.5595 86.783 32.4546 86.2125 33.2548C85.999 33.5286 85.9033 33.8759 85.9464 34.2201C85.9896 34.5643 86.168 34.8773 86.4425 35.0903C86.717 35.3033 87.0651 35.3987 87.4102 35.3557C87.7552 35.3127 88.069 35.1347 88.2825 34.8609C89.0651 33.8096 89.645 32.6223 89.9925 31.3595C90.4538 29.7577 90.6828 28.0982 90.6725 26.4317C90.6725 26.0426 90.6725 25.6436 90.6725 25.2446C91.0325 25.2446 91.3925 25.2446 91.7525 25.2446C94.6891 25.2025 97.5379 26.2433 99.7525 28.1674C102.066 30.2782 103.465 33.205 103.653 36.3272C103.653 36.6764 103.703 37.0155 103.703 37.3248C103.696 38.8923 103.363 40.4414 102.725 41.8737C102.086 43.3059 101.155 44.59 99.9925 45.6442C97.6733 47.7886 94.6346 48.9911 91.4725 49.0159C89.831 49.004 88.2088 48.6611 86.7034 48.008C85.1981 47.3549 83.8406 46.405 82.7125 45.2153C83.298 44.6104 83.6569 43.8229 83.7289 42.9852C83.8009 42.1474 83.5816 41.3105 83.1079 40.615C82.6342 39.9196 81.935 39.4079 81.1277 39.1661C80.3205 38.9243 79.4543 38.9671 78.6749 39.2872C77.8955 39.6074 77.2504 40.1854 76.8478 40.9241C76.4453 41.6628 76.31 42.5173 76.4645 43.3438C76.6191 44.1704 77.0542 44.9187 77.6967 45.4629C78.3391 46.0072 79.1498 46.3143 79.9925 46.3325H80.1325C80.1856 46.4291 80.2493 46.5194 80.3225 46.6019C82.5331 49.0663 85.4893 50.7439 88.7425 51.3801C88.2508 51.7525 87.7832 52.1557 87.3425 52.5871C87.2204 52.7083 87.1234 52.8522 87.057 53.0108C86.9907 53.1694 86.9563 53.3394 86.9558 53.5113C86.9554 53.6831 86.9888 53.8533 87.0543 54.0123C87.1198 54.1712 87.2161 54.3157 87.3375 54.4375C87.459 54.5594 87.6033 54.6561 87.7623 54.7223C87.9213 54.7885 88.0917 54.8228 88.264 54.8232C88.4362 54.8237 88.6069 54.7903 88.7662 54.725C88.9255 54.6597 89.0704 54.5637 89.1925 54.4425C91.3046 52.3024 94.182 51.0861 97.1925 51.0609C99.986 51.071 102.671 52.1409 104.703 54.0535C105.722 54.9993 106.533 56.1471 107.082 57.4234C107.631 58.6996 107.907 60.0763 107.893 61.4652C107.905 63.1591 107.521 64.8327 106.773 66.3531ZM89.1225 60.8567C89.1225 61.054 89.0639 61.2468 88.954 61.4109C88.8441 61.5749 88.6879 61.7028 88.5052 61.7783C88.3225 61.8538 88.1214 61.8735 87.9274 61.835C87.7334 61.7966 87.5553 61.7015 87.4154 61.562C87.2756 61.4225 87.1803 61.2448 87.1417 61.0513C87.1032 60.8578 87.123 60.6572 87.1986 60.4749C87.2743 60.2927 87.4025 60.1369 87.567 60.0273C87.7314 59.9176 87.9247 59.8591 88.1225 59.8591C88.2538 59.8591 88.3839 59.8849 88.5052 59.9351C88.6265 59.9852 88.7368 60.0587 88.8296 60.1513C88.9225 60.2439 88.9961 60.3539 89.0464 60.4749C89.0967 60.596 89.1225 60.7257 89.1225 60.8567ZM68.9925 84.3786C68.9925 84.5759 68.9339 84.7688 68.824 84.9328C68.7141 85.0968 68.5579 85.2247 68.3752 85.3002C68.1925 85.3757 67.9914 85.3954 67.7974 85.357C67.6034 85.3185 67.4253 85.2235 67.2854 85.084C67.1456 84.9445 67.0503 84.7667 67.0117 84.5732C66.9732 84.3797 66.993 84.1791 67.0686 83.9969C67.1443 83.8146 67.2725 83.6588 67.4369 83.5492C67.6014 83.4396 67.7947 83.3811 67.9925 83.3811C68.2577 83.3811 68.5121 83.4862 68.6996 83.6732C68.8872 83.8603 68.9925 84.114 68.9925 84.3786ZM73.1525 98.7431C73.1382 99.003 73.0282 99.2485 72.8437 99.4326C72.6592 99.6166 72.4131 99.7263 72.1525 99.7407C72.0145 99.7429 71.8774 99.7165 71.7501 99.6633C71.6227 99.6101 71.5078 99.5311 71.4125 99.4314C71.3094 99.3379 71.227 99.224 71.1706 99.0968C71.1143 98.9697 71.0851 98.8323 71.0851 98.6933C71.0851 98.5543 71.1143 98.4168 71.1706 98.2896C71.227 98.1625 71.3094 98.0486 71.4125 97.9551C71.5078 97.8554 71.6227 97.7764 71.7501 97.7232C71.8774 97.67 72.0145 97.6436 72.1525 97.6458C72.4214 97.661 72.6744 97.7778 72.8601 97.9723C73.0459 98.1668 73.1504 98.4246 73.1525 98.6933V98.7431ZM73.2725 55.4101C73.2823 55.2152 73.3492 55.0275 73.4648 54.8702C73.5805 54.7128 73.7398 54.5927 73.9232 54.5248C74.1066 54.4569 74.3059 54.4441 74.4965 54.4881C74.687 54.532 74.8605 54.6307 74.9954 54.772C75.1303 54.9133 75.2207 55.091 75.2554 55.283C75.2901 55.475 75.2676 55.673 75.1907 55.8524C75.1137 56.0318 74.9857 56.1847 74.8225 56.2923C74.6594 56.3998 74.4681 56.4573 74.2725 56.4575C74.1394 56.4537 74.0084 56.4234 73.8872 56.3684C73.766 56.3134 73.6571 56.2349 73.5667 56.1373C73.4764 56.0397 73.4065 55.9252 73.3611 55.8003C73.3157 55.6754 73.2958 55.5428 73.3025 55.4101H73.2725ZM81.0525 42.6716C81.0643 42.8853 81.0108 43.0977 80.8991 43.2804C80.7873 43.4632 80.6226 43.6079 80.4266 43.6952C80.2307 43.7826 80.0127 43.8085 79.8017 43.7696C79.5906 43.7308 79.3964 43.6289 79.2446 43.4775C79.0928 43.3261 78.9907 43.1323 78.9518 42.9218C78.9128 42.7113 78.9388 42.4939 79.0264 42.2984C79.1139 42.1029 79.2589 41.9386 79.4422 41.8271C79.6254 41.7156 79.8382 41.6622 80.0525 41.674C80.3183 41.6811 80.5718 41.7876 80.7626 41.9724C80.9534 42.1572 81.0676 42.4067 81.0825 42.6716H81.0525Z" fill="white"/>
<path d="M46.2227 160.181C47.1212 161.81 48.4414 163.168 50.0456 164.114C51.6498 165.06 53.4792 165.559 55.3427 165.559C57.2061 165.559 59.0355 165.06 60.6397 164.114C62.2439 163.168 63.5641 161.81 64.4627 160.181C58.4306 161.259 52.2547 161.259 46.2227 160.181Z" fill="white"/>
<path d="M76.9922 126.983C62.5686 130.335 47.5657 130.335 33.1422 126.983C33.0627 126.959 32.9786 126.955 32.8969 126.97C32.8153 126.985 32.7385 127.019 32.6729 127.07C32.6073 127.121 32.5548 127.187 32.5199 127.262C32.485 127.337 32.4686 127.419 32.4722 127.502V134.894C32.4802 135.086 32.5495 135.271 32.6699 135.422C32.7904 135.573 32.9558 135.681 33.1422 135.732C47.5654 139.08 62.5659 139.087 76.9922 135.752C77.1785 135.701 77.3439 135.593 77.4644 135.442C77.5848 135.291 77.6541 135.106 77.6622 134.914V127.522C77.6691 127.438 77.6553 127.353 77.6218 127.275C77.5883 127.197 77.5363 127.129 77.4702 127.076C77.4041 127.023 77.326 126.986 77.2427 126.97C77.1594 126.954 77.0733 126.959 76.9922 126.983ZM35.1822 134.076H34.5322V129.397H35.1822V134.076ZM38.2622 134.684H37.6122V130.006H38.2622V134.684ZM41.3622 135.193H40.7022V130.505H41.3622V135.193ZM44.4722 135.592H43.8122V130.914H44.4722V135.592ZM47.5822 135.891H46.9322V131.213H47.5822V135.891ZM50.7022 136.091H50.0522V131.412H50.7022V136.091ZM53.8322 136.201H53.1722V131.512H53.8322V136.201ZM56.9622 136.201H56.3022V131.512H56.9922L56.9622 136.201ZM60.0822 136.091H59.4322V131.412H60.0822V136.091ZM63.2022 135.891H62.5522V131.213H63.2022V135.891ZM66.3222 135.592H65.6622V130.914H66.3222V135.592ZM69.4322 135.193H68.7722V130.505H69.4322V135.193ZM72.5222 134.684H71.8722V130.006H72.5222V134.684ZM75.6022 134.076H74.9922V129.397H75.6422L75.6022 134.076Z" fill="white"/>
<path d="M74.5826 137.797C61.7528 140.765 48.4124 140.765 35.5826 137.797C35.5031 137.773 35.419 137.768 35.3374 137.783C35.2557 137.798 35.1789 137.833 35.1133 137.883C35.0477 137.934 34.9952 138 34.9603 138.075C34.9254 138.15 34.909 138.233 34.9126 138.315V145.727C34.9207 145.92 34.9899 146.105 35.1104 146.255C35.2308 146.406 35.3962 146.514 35.5826 146.565C48.4135 149.523 61.7517 149.523 74.5826 146.565C74.769 146.514 74.9343 146.406 75.0548 146.255C75.1753 146.105 75.2445 145.92 75.2526 145.727V138.335C75.2595 138.251 75.2457 138.166 75.2122 138.088C75.1788 138.011 75.1267 137.942 75.0606 137.889C74.9946 137.836 74.9165 137.8 74.8331 137.784C74.7498 137.768 74.6638 137.772 74.5826 137.797ZM38.2826 145.029H37.6326V140.35H38.2826V145.029ZM41.3726 145.597H40.7126V140.909H41.3726V145.597ZM44.4726 146.046H43.8226V141.368H44.4726V146.046ZM47.5826 146.386H46.9326V141.737H47.5826V146.386ZM50.7026 146.615H50.0526V141.927H50.7026V146.615ZM53.8326 146.725H53.1726V142.046H53.8326V146.725ZM56.9926 146.725H56.3326V142.046H56.9926V146.725ZM60.1126 146.615H59.4626V141.927H60.1126V146.615ZM63.2326 146.386H62.5826V141.737H63.2326V146.386ZM66.3426 146.046H65.6926V141.368H66.3426V146.046ZM69.4526 145.597H68.7926V140.909H69.4526V145.597ZM72.5426 145.029H71.8826V140.35H72.5426V145.029Z" fill="white"/>
<path d="M71.4727 148.61C60.6777 151.093 49.4576 151.093 38.6627 148.61C38.5832 148.586 38.4991 148.581 38.4174 148.596C38.3358 148.612 38.259 148.646 38.1934 148.697C38.1278 148.747 38.0753 148.813 38.0404 148.888C38.0055 148.964 37.9891 149.046 37.9927 149.129V156.52C37.9992 156.713 38.0679 156.899 38.1886 157.05C38.3092 157.201 38.4755 157.309 38.6627 157.358C49.4576 159.842 60.6777 159.842 71.4727 157.358C71.6598 157.309 71.8261 157.201 71.9468 157.05C72.0675 156.899 72.1362 156.713 72.1427 156.52V149.129C72.1462 149.046 72.1299 148.964 72.0949 148.888C72.06 148.813 72.0076 148.747 71.942 148.697C71.8764 148.646 71.7995 148.612 71.7179 148.596C71.6362 148.581 71.5522 148.586 71.4727 148.61ZM41.3927 155.832H40.7327V151.154H41.3927V155.832ZM44.4827 156.371H43.8227V151.712H44.4827V156.371ZM47.5927 156.77H46.9327V152.091H47.5927V156.77ZM50.7127 157.039H50.0527V152.351H50.7127V157.039ZM53.8327 157.169H53.1727V152.49H53.8327V157.169ZM56.9627 157.169H56.3027V152.49H56.9927L56.9627 157.169ZM60.0827 157.039H59.4327V152.351H60.0827V157.039ZM63.2027 156.77H62.5427V152.091H63.2027V156.77ZM66.3127 156.371H65.6527V151.712H66.3127V156.371ZM69.4027 155.832H68.7427V151.154H69.4027V155.832Z" fill="white"/>
<path style="mix-blend-mode:hue" d="M52.2225 127.572C52.4053 127.588 52.5893 127.564 52.762 127.502C52.9346 127.44 53.0917 127.341 53.2225 127.213C53.3513 127.091 53.454 126.944 53.5245 126.781C53.5949 126.618 53.6317 126.443 53.6325 126.265V1.85246C53.6373 1.66691 53.6034 1.48238 53.5328 1.31063C53.4622 1.13889 53.3565 0.98369 53.2225 0.854927C53.0901 0.72943 52.9325 0.633412 52.7601 0.573224C52.5877 0.513036 52.4045 0.490048 52.2225 0.505787C49.9104 0.633569 47.6089 0.910131 45.3325 1.33374C35.3355 3.18431 26.0412 7.74168 18.4663 14.5074C10.8913 21.273 5.32737 29.9864 2.3831 39.6945C-0.561183 49.4025 -0.77242 59.7313 1.77249 69.5511C4.3174 79.3708 9.52044 88.3033 16.8125 95.3716L16.8725 95.4514C22.4232 100.854 26.7294 107.396 29.4925 114.624C30.2837 116.707 30.9122 118.848 31.3725 121.028C31.5225 121.806 31.6225 122.405 31.6725 122.814C31.6725 123.013 31.6925 123.163 31.7325 123.263V123.392C31.7533 123.649 31.8499 123.894 32.01 124.097C32.1702 124.299 32.3868 124.45 32.6325 124.53C39.2325 126.684 45.7725 127.273 52.2225 127.572Z" fill="url(#paint86_linear_884_5065)"/>
<path d="M109.162 120.609L107.462 122.734V124.051C107.077 124.86 106.743 125.693 106.462 126.544C106.133 127.527 105.856 128.526 105.632 129.537C105.347 130.765 105.189 132.018 105.162 133.278C105.128 134.577 105.185 135.877 105.332 137.168C105.469 138.433 105.679 139.689 105.962 140.929C106.228 142.062 106.562 143.178 106.962 144.271C106.834 144.496 106.746 144.743 106.702 144.999C106.622 145.358 106.562 145.747 106.512 146.156C106.462 146.565 106.442 146.944 106.422 147.303C106.394 147.565 106.418 147.829 106.492 148.081L106.822 148.6C106.887 148.63 106.943 148.676 106.985 148.734C107.027 148.791 107.053 148.859 107.062 148.929C107.062 149.089 107.122 149.228 107.152 149.358C107.209 150.157 106.994 150.951 106.542 151.613C105.937 151.529 105.344 151.379 104.772 151.164C104.219 150.964 103.709 150.755 103.242 150.535C102.953 149.878 102.58 149.261 102.132 148.7L100.972 147.333C100.622 146.954 100.292 146.565 99.9722 146.156C99.596 145.666 99.2615 145.145 98.9722 144.6C98.8651 143.651 98.7082 142.709 98.5022 141.777C98.3155 140.932 98.0955 140.054 97.8421 139.143L97.7021 138.625C97.7621 137.458 97.8222 136.28 97.8922 135.073C97.9525 134.03 97.9525 132.984 97.8922 131.941C97.9566 131.67 97.9934 131.392 98.0022 131.113C98.0022 130.814 98.0022 130.515 98.0722 130.195V129.637C98.0511 129.448 98.0511 129.257 98.0722 129.068L99.0722 128.978L98.7421 127.472L99.2621 126.904L99.4521 126.056C99.5094 124.468 99.7613 122.894 100.202 121.367C100.632 119.994 101.219 118.675 101.952 117.437L102.332 116.739C102.862 116.01 103.402 115.242 103.932 114.434C104.462 113.626 105.082 112.739 105.772 111.791C106.872 110.604 107.842 109.576 108.672 108.738C109.432 107.951 110.281 107.255 111.202 106.664L111.622 106.145C112.222 105.576 112.732 105.147 113.152 104.758C113.572 104.369 113.962 104.04 114.312 103.701L115.252 102.853C115.515 102.62 115.8 102.413 116.102 102.234C116.28 102.379 116.484 102.487 116.704 102.552C116.924 102.617 117.154 102.638 117.382 102.614C117.722 102.57 118.057 102.493 118.382 102.384C118.682 102.64 118.88 102.993 118.942 103.382C118.926 103.779 118.866 104.174 118.762 104.559C118.662 104.968 118.582 105.437 118.502 105.975C118.427 106.567 118.517 107.167 118.762 107.711C118.601 108.056 118.467 108.413 118.362 108.778C118.255 109.137 118.135 109.507 118.002 109.886C117.915 110.167 117.804 110.44 117.672 110.704C117.59 110.861 117.486 111.005 117.362 111.133C117.246 111.25 117.122 111.36 116.992 111.462C116.804 111.62 116.636 111.801 116.492 112C115.696 112.327 114.957 112.779 114.302 113.337C113.559 113.949 112.864 114.616 112.222 115.332C111.596 116.048 111.028 116.812 110.522 117.617C110.086 118.295 109.731 119.021 109.462 119.781L109.162 120.609Z" fill="white"/>
<path d="M117.843 143.582C117.354 143.565 116.866 143.519 116.383 143.443C115.805 142.797 115.348 142.054 115.033 141.248C114.628 140.286 114.33 139.282 114.143 138.256C113.937 137.218 113.84 136.161 113.853 135.103C113.853 134.142 114.04 133.191 114.403 132.3C114.403 132.3 114.543 131.891 114.843 131.173L116.003 128.42C116.473 127.303 117.003 126.066 117.603 124.699C118.203 123.332 118.803 121.996 119.403 120.709C120.003 119.422 120.573 118.185 121.123 117.108C121.549 116.237 122.03 115.394 122.563 114.584C122.843 114.145 123.103 113.726 123.343 113.317C123.583 112.908 123.803 112.529 124.023 112.19L125.023 110.614C125.312 110.143 125.647 109.702 126.023 109.297C126.382 108.918 126.784 108.583 127.223 108.3C127.723 107.972 128.264 107.71 128.833 107.521C129.177 107.662 129.511 107.825 129.833 108.01C130.111 108.187 130.364 108.402 130.583 108.649L130.723 109.307C130.765 109.491 130.876 109.651 131.033 109.756C131.141 109.826 131.264 109.867 131.393 109.876C131.752 109.953 132.106 110.053 132.453 110.175C132.773 110.299 133.11 110.373 133.453 110.394C133.583 110.584 133.703 110.763 133.813 110.953C133.916 111.134 134.033 111.308 134.163 111.472C134.748 112.309 135.27 113.19 135.723 114.105C135.926 114.541 136.031 115.016 136.031 115.497C136.031 115.978 135.926 116.452 135.723 116.888L135.773 117.407C135.909 117.582 135.989 117.794 136.003 118.016C135.994 118.284 135.964 118.55 135.913 118.814C135.913 119.073 135.853 119.342 135.843 119.642C135.824 119.978 135.861 120.315 135.953 120.639L136.293 121.008C136.741 121.251 137.242 121.381 137.753 121.387C138.346 121.395 138.931 121.251 139.453 120.968C139.953 120.679 140.453 120.4 140.863 120.12C141.182 119.893 141.516 119.686 141.863 119.502C142.14 119.361 142.432 119.251 142.733 119.173C143.393 118.544 144.003 117.996 144.553 117.507C145.103 117.018 145.673 116.509 146.273 116.021C147.424 115.081 148.525 114.082 149.573 113.028C150.689 111.911 151.558 110.572 152.123 109.098C152.476 108.877 152.886 108.762 153.303 108.768C153.755 108.773 154.203 108.86 154.623 109.028C155.063 109.207 155.503 109.397 155.943 109.616C156.024 109.672 156.111 109.719 156.203 109.756C156.294 109.797 156.381 109.847 156.463 109.906C156.467 110.083 156.508 110.257 156.582 110.418C156.656 110.579 156.761 110.724 156.893 110.843C157.053 110.963 157.153 111.043 157.223 111.083L157.413 111.172L158.043 111.591C158.224 111.724 158.365 111.904 158.453 112.11C158.69 112.912 159.186 113.613 159.863 114.105C159.802 114.437 159.819 114.779 159.913 115.103C160.002 115.442 160.112 115.775 160.243 116.1C160.3 116.212 160.347 116.329 160.383 116.449C160.383 116.559 160.463 116.689 160.523 116.848L159.523 116.759L159.663 117.756C159.758 118.352 159.72 118.962 159.553 119.542C159.421 120.083 159.223 120.606 158.963 121.098C159.023 122.036 159.053 122.784 159.053 123.332C159.055 123.843 159.025 124.352 158.963 124.859C158.897 125.315 158.793 125.766 158.653 126.205C158.499 126.661 158.318 127.107 158.113 127.542C158.258 129.756 157.977 131.978 157.283 134.086C156.616 136.081 155.886 137.933 155.093 139.642L154.813 140.251C154.716 140.433 154.635 140.623 154.573 140.819C154.25 140.9 153.935 141.01 153.633 141.148C153.351 141.264 153.08 141.404 152.823 141.567C152.506 141.776 152.171 141.957 151.823 142.106C151.478 142.253 151.107 142.328 150.733 142.326C149.223 141.228 148.443 139.333 148.393 136.63C148.477 133.127 149.059 129.654 150.123 126.315C150.231 126.237 150.315 126.13 150.365 126.007C150.415 125.883 150.428 125.748 150.403 125.617V125.098L149.933 125.048C149.788 125.048 149.644 125.065 149.503 125.098C149.383 125.098 149.283 125.268 149.223 125.517C148.223 126.235 147.123 126.983 145.943 127.752C144.76 128.521 143.538 129.231 142.283 129.876C141.045 130.504 139.761 131.037 138.443 131.472C137.217 131.881 135.935 132.097 134.643 132.111C131.493 132.111 129.123 130.505 127.513 127.303L127.093 126.455L126.623 127.213C126.523 127.372 126.363 127.672 126.123 128.131C125.883 128.589 125.653 129.128 125.413 129.707C125.178 130.308 124.974 130.92 124.803 131.542C124.638 132.074 124.583 132.634 124.643 133.188C124.245 133.554 123.874 133.947 123.533 134.365C123.172 134.809 122.907 135.321 122.753 135.871C122.71 136.018 122.71 136.174 122.753 136.32C122.788 136.473 122.835 136.623 122.893 136.769C122.885 136.943 122.818 137.108 122.703 137.238C122.601 137.341 122.491 137.434 122.373 137.517L121.903 138.016C121.57 138.321 121.369 138.743 121.343 139.193C121.343 139.393 121.273 139.572 121.243 139.732C121.264 139.977 121.216 140.222 121.103 140.44C120.793 141.099 120.513 141.637 120.273 142.066C120.095 142.429 119.866 142.765 119.593 143.064C119.403 143.262 119.17 143.416 118.913 143.513C118.565 143.609 118.2 143.632 117.843 143.582Z" fill="#004AAE"/>
<path d="M175.742 130.594C175.516 130.788 175.323 131.017 175.172 131.273C175.012 131.542 174.862 131.811 174.702 132.101C174.542 132.39 174.372 132.769 174.182 133.098C173.988 133.414 173.749 133.699 173.472 133.946C173.352 134.33 173.195 134.701 173.002 135.053C172.784 135.387 172.529 135.695 172.242 135.971C171.797 137.472 171.045 138.865 170.032 140.061C169.998 140.351 169.909 140.632 169.772 140.889C169.632 141.148 169.482 141.408 169.322 141.667C169.262 141.757 169.192 141.857 169.132 141.966L168.992 142.226L168.892 142.695C168.752 142.935 168.58 143.157 168.382 143.353L167.862 143.872C167.76 144.005 167.65 144.132 167.532 144.251L166.822 144.53C165.812 144.472 164.85 144.08 164.089 143.415C163.328 142.75 162.812 141.85 162.622 140.859L162.672 140.39C162.732 140.231 162.782 140.071 162.832 139.902C162.882 139.732 162.932 139.542 163.002 139.353C163.126 138.907 163.273 138.467 163.442 138.036C163.623 137.597 163.888 137.197 164.222 136.859C164.347 136.499 164.491 136.147 164.652 135.802C164.872 135.313 165.252 134.585 165.782 133.617L166.782 131.821C167.032 131.383 167.232 131.043 167.392 130.824C167.08 130.319 166.7 129.859 166.262 129.457C165.852 128.669 165.502 127.921 165.202 127.193C164.935 126.565 164.705 125.922 164.512 125.268C164.492 124.932 164.445 124.598 164.372 124.27C164.312 123.991 164.252 123.692 164.182 123.372C164.112 123.053 164.012 122.684 163.952 122.375C163.883 122.017 163.849 121.652 163.852 121.287C163.709 121.092 163.613 120.867 163.572 120.629L163.662 120.16C163.747 119.874 163.747 119.569 163.662 119.282C163.602 118.923 163.522 118.554 163.432 118.185C163.342 117.816 163.292 117.517 163.212 117.188C163.134 116.814 163.111 116.431 163.142 116.05C163.175 115.681 163.28 115.322 163.452 114.993C163.656 114.629 163.957 114.329 164.322 114.125H165.122L165.952 114.574C166.219 114.714 166.479 114.863 166.732 115.023L167.732 115.492C168.08 115.67 168.414 115.874 168.732 116.1L169.062 116.769L169.672 117.277V117.796C169.708 117.967 169.725 118.141 169.722 118.315C169.722 118.724 169.782 118.973 169.912 119.073L170.102 119.632C170.101 120.051 170.148 120.469 170.242 120.878C170.332 121.277 170.432 121.647 170.522 121.986C170.612 122.325 170.712 122.694 170.812 123.073C170.893 123.478 170.893 123.895 170.812 124.3C170.986 124.212 171.147 124.101 171.292 123.971C171.342 123.91 171.403 123.859 171.472 123.821C171.546 123.791 171.611 123.743 171.662 123.682L174.452 119.921L174.352 119.442L175.352 118.504L176.082 117.796C176.311 117.593 176.51 117.358 176.672 117.098L177.192 116.719C177.666 115.96 178.293 115.309 179.033 114.806C179.774 114.302 180.611 113.959 181.492 113.796L182.152 113.706L182.342 114.315C182.496 114.704 182.769 115.036 183.122 115.262C183.524 115.55 183.942 115.816 184.372 116.06L184.792 116.34C184.921 116.556 185.002 116.798 185.032 117.048C185.049 117.187 185.049 117.328 185.032 117.467L185.222 117.946C185.048 118.558 184.733 119.122 184.302 119.592C183.942 119.931 183.582 120.25 183.242 120.529L182.462 121.208C182.222 121.42 182.037 121.687 181.922 121.986L181.592 122.365C181.289 122.519 181.021 122.732 180.801 122.99C180.581 123.249 180.415 123.548 180.312 123.871L180.172 124.44H179.602C179.602 124.44 179.502 124.44 179.392 124.599C179.192 124.852 179.027 125.13 178.902 125.427C178.756 125.641 178.596 125.844 178.422 126.036L178.192 126.275C178.163 126.395 178.122 126.512 178.072 126.624C178.072 126.734 177.972 126.874 177.902 127.023C177.609 127.292 177.357 127.601 177.152 127.941L176.822 128.629C176.692 128.879 176.582 129.118 176.462 129.358C176.324 129.629 176.142 129.875 175.922 130.086L175.742 130.594Z" fill="#004AAE"/>
<path d="M195.513 115.203C195.443 116.39 195.383 117.587 195.323 118.774C195.262 119.81 195.262 120.849 195.323 121.886C195.262 122.172 195.222 122.462 195.203 122.754C195.203 123.053 195.203 123.342 195.133 123.622V124.19C195.153 124.379 195.153 124.57 195.133 124.759L194.133 124.899L194.473 126.355L193.953 126.924L193.763 127.771C193.672 130.821 192.812 133.799 191.263 136.43L190.883 137.088C190.343 137.807 189.813 138.585 189.273 139.413C188.733 140.241 188.133 141.138 187.433 142.076C186.333 143.273 185.373 144.281 184.533 145.069C183.773 145.846 182.928 146.536 182.013 147.124L181.583 147.642C180.993 148.201 180.473 148.64 180.053 149.029C179.633 149.418 179.243 149.737 178.893 150.086L177.953 150.934C177.691 151.166 177.407 151.37 177.103 151.543C176.927 151.4 176.723 151.295 176.505 151.235C176.286 151.174 176.057 151.16 175.833 151.194L174.833 151.403C174.523 151.155 174.319 150.798 174.263 150.406C174.275 150.013 174.339 149.624 174.453 149.248C174.543 148.81 174.633 148.321 174.713 147.792C174.783 147.197 174.693 146.595 174.453 146.046C174.606 145.722 174.74 145.389 174.853 145.049C174.963 144.71 175.083 144.331 175.203 143.922C175.295 143.639 175.405 143.362 175.533 143.094C175.618 142.942 175.722 142.801 175.843 142.675C175.963 142.558 176.09 142.448 176.223 142.345C176.407 142.186 176.571 142.005 176.713 141.807C177.499 141.468 178.231 141.014 178.883 140.46C179.641 139.859 180.344 139.192 180.983 138.465C181.607 137.758 182.175 137.005 182.683 136.211C183.122 135.541 183.478 134.821 183.743 134.066L184.033 133.218L185.683 131.103L185.773 129.787C186.593 128.04 187.21 126.206 187.613 124.32C187.909 123.112 188.06 121.873 188.063 120.629C188.09 118.042 187.814 115.461 187.243 112.938C186.983 111.806 186.666 110.687 186.293 109.586C186.429 109.364 186.518 109.116 186.553 108.858C186.633 108.499 186.693 108.12 186.743 107.711C186.793 107.302 186.823 106.913 186.833 106.554C186.865 106.292 186.841 106.027 186.763 105.776L186.433 105.307C186.316 105.223 186.234 105.098 186.203 104.958C186.203 104.818 186.133 104.669 186.103 104.509C186.044 103.706 186.263 102.907 186.723 102.245C187.308 102.342 187.884 102.493 188.443 102.693C188.993 102.903 189.523 103.112 190.023 103.332C190.31 103.99 190.684 104.607 191.133 105.167L192.283 106.534L193.283 107.731C193.665 108.206 194 108.717 194.283 109.257C194.413 110.255 194.573 111.252 194.763 112.09C194.953 112.928 195.163 113.816 195.423 114.724L195.513 115.203Z" fill="white"/>
<path d="M213.683 101.287V104.369H207.233V107.701H212.063V110.694H207.233V117.078H203.383V101.287H213.683Z" fill="white"/>
<path d="M227.993 101.287V104.369H223.803V117.078H219.993V104.369H215.803V101.287H227.993Z" fill="white"/>
<defs>
<linearGradient id="paint0_linear_884_5065" x1="2.16297" y1="61.0162" x2="13.9721" y2="43.3558" gradientUnits="userSpaceOnUse">
<stop stop-color="#F07100"/>
<stop offset="1" stop-color="#E26500"/>
</linearGradient>
<linearGradient id="paint1_linear_884_5065" x1="54.6728" y1="20.7656" x2="84.5251" y2="7.75813" gradientUnits="userSpaceOnUse">
<stop stop-color="#E97E01"/>
<stop offset="1" stop-color="#E47500"/>
</linearGradient>
<linearGradient id="paint2_linear_884_5065" x1="3.15297" y1="61.9838" x2="11.8001" y2="49.8613" gradientUnits="userSpaceOnUse">
<stop stop-color="#F87700"/>
<stop offset="1" stop-color="#DD5E00"/>
</linearGradient>
<linearGradient id="paint3_linear_884_5065" x1="0.393086" y1="63.4502" x2="7.07286" y2="61.0976" gradientUnits="userSpaceOnUse">
<stop stop-color="#CF5300"/>
<stop offset="1" stop-color="#CA5000"/>
</linearGradient>
<linearGradient id="paint4_linear_884_5065" x1="-9.2577" y1="87.8699" x2="13.652" y2="63.0496" gradientUnits="userSpaceOnUse">
<stop stop-color="#D95D00"/>
<stop offset="1" stop-color="#CF5700"/>
</linearGradient>
<linearGradient id="paint5_linear_884_5065" x1="4.18273" y1="72.4679" x2="15.9688" y2="61.0125" gradientUnits="userSpaceOnUse">
<stop stop-color="#D95E00"/>
<stop offset="1" stop-color="#DD6100"/>
</linearGradient>
<linearGradient id="paint6_linear_884_5065" x1="4.18273" y1="80.2088" x2="22.5389" y2="71.056" gradientUnits="userSpaceOnUse">
<stop stop-color="#AC3C00"/>
<stop offset="1" stop-color="#BC4800"/>
</linearGradient>
<linearGradient id="paint7_linear_884_5065" x1="23.0925" y1="16.9849" x2="42.7259" y2="-9.05002" gradientUnits="userSpaceOnUse">
<stop stop-color="#FFA510"/>
<stop offset="1" stop-color="#FF9F13"/>
</linearGradient>
<linearGradient id="paint8_linear_884_5065" x1="17.2729" y1="19.8678" x2="34.3086" y2="5.56739" gradientUnits="userSpaceOnUse">
<stop stop-color="#FFB420"/>
<stop offset="1" stop-color="#FFC330"/>
</linearGradient>
<linearGradient id="paint9_linear_884_5065" x1="-3.76742" y1="13.2542" x2="9.00777" y2="-3.10354" gradientUnits="userSpaceOnUse">
<stop stop-color="#FF9406"/>
<stop offset="1" stop-color="#FFB21A"/>
</linearGradient>
<linearGradient id="paint10_linear_884_5065" x1="-10.9468" y1="10.1817" x2="3.38699" y2="-6.38443" gradientUnits="userSpaceOnUse">
<stop stop-color="#F68501"/>
<stop offset="1" stop-color="#FFA411"/>
</linearGradient>
<linearGradient id="paint11_linear_884_5065" x1="8.58231" y1="5.96216" x2="16.0534" y2="0.131548" gradientUnits="userSpaceOnUse">
<stop stop-color="#FFBB23"/>
<stop offset="1" stop-color="#FFBB22"/>
</linearGradient>
<linearGradient id="paint12_linear_884_5065" x1="5.97231" y1="4.87484" x2="10.7575" y2="-6.08339" gradientUnits="userSpaceOnUse">
<stop stop-color="#FFBE24"/>
<stop offset="1" stop-color="#FFC029"/>
</linearGradient>
<linearGradient id="paint13_linear_884_5065" x1="12.9323" y1="5.04439" x2="27.4244" y2="-12.6597" gradientUnits="userSpaceOnUse">
<stop stop-color="#FFB628"/>
<stop offset="1" stop-color="#FFA91A"/>
</linearGradient>
<linearGradient id="paint14_linear_884_5065" x1="15.433" y1="78.3633" x2="22.1459" y2="65.537" gradientUnits="userSpaceOnUse">
<stop stop-color="#B94100"/>
<stop offset="1" stop-color="#C04700"/>
</linearGradient>
<linearGradient id="paint15_linear_884_5065" x1="27.2027" y1="93.5358" x2="38.0732" y2="88.9088" gradientUnits="userSpaceOnUse">
<stop stop-color="#CD5000"/>
<stop offset="1" stop-color="#C84E00"/>
</linearGradient>
<linearGradient id="paint16_linear_884_5065" x1="12.9331" y1="93.5358" x2="27.9106" y2="76.6743" gradientUnits="userSpaceOnUse">
<stop stop-color="#C04700"/>
<stop offset="1" stop-color="#BB4400"/>
</linearGradient>
<linearGradient id="paint17_linear_884_5065" x1="12.9331" y1="83.0318" x2="25.7584" y2="66.5679" gradientUnits="userSpaceOnUse">
<stop stop-color="#BB4500"/>
<stop offset="1" stop-color="#BE4700"/>
</linearGradient>
<linearGradient id="paint18_linear_884_5065" x1="31.5528" y1="78.7125" x2="49.2297" y2="55.6063" gradientUnits="userSpaceOnUse">
<stop stop-color="#BC4500"/>
<stop offset="1" stop-color="#D45A00"/>
</linearGradient>
<linearGradient id="paint19_linear_884_5065" x1="43.9425" y1="105.127" x2="66.211" y2="92.5253" gradientUnits="userSpaceOnUse">
<stop stop-color="#E46900"/>
<stop offset="1" stop-color="#D65C00"/>
</linearGradient>
<linearGradient id="paint20_linear_884_5065" x1="32.5923" y1="97.3066" x2="55.3053" y2="78.4307" gradientUnits="userSpaceOnUse">
<stop stop-color="#D65D00"/>
<stop offset="1" stop-color="#D45A00"/>
</linearGradient>
<linearGradient id="paint21_linear_884_5065" x1="28.3123" y1="85.8748" x2="41.6941" y2="65.4226" gradientUnits="userSpaceOnUse">
<stop stop-color="#C54B00"/>
<stop offset="1" stop-color="#CB5000"/>
</linearGradient>
<linearGradient id="paint22_linear_884_5065" x1="27.5628" y1="76.8969" x2="30.3794" y2="65.6307" gradientUnits="userSpaceOnUse">
<stop stop-color="#B23D00"/>
<stop offset="1" stop-color="#BE4700"/>
</linearGradient>
<linearGradient id="paint23_linear_884_5065" x1="-15.9475" y1="129.886" x2="12.8758" y2="106.229" gradientUnits="userSpaceOnUse">
<stop stop-color="#D67B0F"/>
<stop offset="1" stop-color="#CA6608"/>
</linearGradient>
<linearGradient id="paint24_linear_884_5065" x1="-13.8469" y1="129.886" x2="12.2074" y2="86.9048" gradientUnits="userSpaceOnUse">
<stop stop-color="#C86A08"/>
<stop offset="1" stop-color="#AF4700"/>
</linearGradient>
<linearGradient id="paint25_linear_884_5065" x1="15.4325" y1="116.559" x2="32.1565" y2="92.997" gradientUnits="userSpaceOnUse">
<stop stop-color="#AC4300"/>
<stop offset="1" stop-color="#BE4D00"/>
</linearGradient>
<linearGradient id="paint26_linear_884_5065" x1="15.5325" y1="105.197" x2="28.3314" y2="90.0015" gradientUnits="userSpaceOnUse">
<stop stop-color="#E46200"/>
<stop offset="1" stop-color="#C54E00"/>
</linearGradient>
<linearGradient id="paint27_linear_884_5065" x1="5.23309" y1="100.838" x2="20.4255" y2="83.5258" gradientUnits="userSpaceOnUse">
<stop stop-color="#C14D00"/>
<stop offset="1" stop-color="#C84E00"/>
</linearGradient>
<linearGradient id="paint28_linear_884_5065" x1="11.0531" y1="91.8202" x2="17.01" y2="80.0788" gradientUnits="userSpaceOnUse">
<stop stop-color="#C34800"/>
<stop offset="1" stop-color="#BC4500"/>
</linearGradient>
<linearGradient id="paint29_linear_884_5065" x1="-13.4077" y1="89.825" x2="0.502477" y2="67.4815" gradientUnits="userSpaceOnUse">
<stop stop-color="#C54E00"/>
<stop offset="1" stop-color="#CB5100"/>
</linearGradient>
<linearGradient id="paint30_linear_884_5065" x1="-21.2674" y1="71.7896" x2="-0.26891" y2="52.2934" gradientUnits="userSpaceOnUse">
<stop stop-color="#DE6402"/>
<stop offset="1" stop-color="#D96101"/>
</linearGradient>
<linearGradient id="paint31_linear_884_5065" x1="-14.8274" y1="63.4502" x2="-5.97268" y2="47.2101" gradientUnits="userSpaceOnUse">
<stop stop-color="#D15800"/>
<stop offset="1" stop-color="#C54E00"/>
</linearGradient>
<linearGradient id="paint32_linear_884_5065" x1="-14.7574" y1="59.3204" x2="-3.82329" y2="44.043" gradientUnits="userSpaceOnUse">
<stop stop-color="#CD5500"/>
<stop offset="1" stop-color="#D75D00"/>
</linearGradient>
<linearGradient id="paint33_linear_884_5065" x1="51.4728" y1="27.2396" x2="63.8251" y2="6.54" gradientUnits="userSpaceOnUse">
<stop stop-color="#F99307"/>
<stop offset="1" stop-color="#FD9006"/>
</linearGradient>
<linearGradient id="paint34_linear_884_5065" x1="22.653" y1="68.7471" x2="36.3252" y2="59.775" gradientUnits="userSpaceOnUse">
<stop stop-color="#B13F00"/>
<stop offset="1" stop-color="#C34D00"/>
</linearGradient>
<linearGradient id="paint35_linear_884_5065" x1="15.9126" y1="61.0162" x2="26.6844" y2="52.047" gradientUnits="userSpaceOnUse">
<stop stop-color="#EF7000"/>
<stop offset="1" stop-color="#DE6200"/>
</linearGradient>
<linearGradient id="paint36_linear_884_5065" x1="20.3022" y1="58.2929" x2="31.6706" y2="44.9288" gradientUnits="userSpaceOnUse">
<stop stop-color="#C04900"/>
<stop offset="1" stop-color="#CB5300"/>
</linearGradient>
<linearGradient id="paint37_linear_884_5065" x1="41.2429" y1="115.561" x2="42.6015" y2="109.523" gradientUnits="userSpaceOnUse">
<stop stop-color="#A23C00"/>
<stop offset="1" stop-color="#A53C00"/>
</linearGradient>
<linearGradient id="paint38_linear_884_5065" x1="53.5727" y1="135.662" x2="82.844" y2="117.875" gradientUnits="userSpaceOnUse">
<stop stop-color="#AA4F00"/>
<stop offset="1" stop-color="#C55500"/>
</linearGradient>
<linearGradient id="paint39_linear_884_5065" x1="52.893" y1="113.117" x2="60.5886" y2="110.997" gradientUnits="userSpaceOnUse">
<stop stop-color="#C55100"/>
<stop offset="1" stop-color="#CB5900"/>
</linearGradient>
<linearGradient id="paint40_linear_884_5065" x1="35.9525" y1="57.8441" x2="69.5641" y2="40.2321" gradientUnits="userSpaceOnUse">
<stop stop-color="#D65C00"/>
<stop offset="1" stop-color="#F47B02"/>
</linearGradient>
<linearGradient id="paint41_linear_884_5065" x1="21.9922" y1="64.6572" x2="51.8154" y2="54.3394" gradientUnits="userSpaceOnUse">
<stop stop-color="#E26600"/>
<stop offset="1" stop-color="#FF8402"/>
</linearGradient>
<linearGradient id="paint42_linear_884_5065" x1="19.2422" y1="46.4122" x2="45.9507" y2="33.4493" gradientUnits="userSpaceOnUse">
<stop stop-color="#F67B00"/>
<stop offset="1" stop-color="#FF9907"/>
</linearGradient>
<linearGradient id="paint43_linear_884_5065" x1="29.5129" y1="20.3167" x2="33.3609" y2="8.12422" gradientUnits="userSpaceOnUse">
<stop stop-color="#FFA20A"/>
<stop offset="1" stop-color="#FF9104"/>
</linearGradient>
<linearGradient id="paint44_linear_884_5065" x1="-7.19687" y1="134.924" x2="2.86161" y2="103.288" gradientUnits="userSpaceOnUse">
<stop stop-color="#B45E08"/>
<stop offset="1" stop-color="#993B00"/>
</linearGradient>
<linearGradient id="paint45_linear_884_5065" x1="36.5429" y1="120.15" x2="42.893" y2="108.371" gradientUnits="userSpaceOnUse">
<stop stop-color="#A23D00"/>
<stop offset="1" stop-color="#973500"/>
</linearGradient>
<linearGradient id="paint46_linear_884_5065" x1="29.0725" y1="98.4039" x2="30.865" y2="91.9596" gradientUnits="userSpaceOnUse">
<stop stop-color="#D65C00"/>
<stop offset="1" stop-color="#D15700"/>
</linearGradient>
<linearGradient id="paint47_linear_884_5065" x1="26.7127" y1="98.2742" x2="30.3006" y2="97.323" gradientUnits="userSpaceOnUse">
<stop stop-color="#DD5C00"/>
<stop offset="1" stop-color="#D15100"/>
</linearGradient>
<linearGradient id="paint48_linear_884_5065" x1="31.1725" y1="98.9825" x2="37.4915" y2="88.3296" gradientUnits="userSpaceOnUse">
<stop stop-color="#D95E00"/>
<stop offset="1" stop-color="#D45700"/>
</linearGradient>
<linearGradient id="paint49_linear_884_5065" x1="26.1327" y1="95.0622" x2="32.0391" y2="88.6627" gradientUnits="userSpaceOnUse">
<stop stop-color="#CF5300"/>
<stop offset="1" stop-color="#D25500"/>
</linearGradient>
<linearGradient id="paint50_linear_884_5065" x1="0.393086" y1="54.9012" x2="11.1426" y2="50.1253" gradientUnits="userSpaceOnUse">
<stop stop-color="#D25400"/>
<stop offset="1" stop-color="#D15700"/>
</linearGradient>
<linearGradient id="paint51_linear_884_5065" x1="4.89297" y1="52.8563" x2="16.6678" y2="37.137" gradientUnits="userSpaceOnUse">
<stop stop-color="#C14900"/>
<stop offset="1" stop-color="#DB6000"/>
</linearGradient>
<linearGradient id="paint52_linear_884_5065" x1="-2.56699" y1="50.562" x2="8.08065" y2="41.4298" gradientUnits="userSpaceOnUse">
<stop stop-color="#C34D00"/>
<stop offset="1" stop-color="#D95D00"/>
</linearGradient>
<linearGradient id="paint53_linear_884_5065" x1="9.20312" y1="52.0783" x2="40.2272" y2="31.9833" gradientUnits="userSpaceOnUse">
<stop stop-color="#E46800"/>
<stop offset="1" stop-color="#EB7503"/>
</linearGradient>
<linearGradient id="paint54_linear_884_5065" x1="-4.76707" y1="45.6542" x2="0.580544" y2="36.7902" gradientUnits="userSpaceOnUse">
<stop stop-color="#E46201"/>
<stop offset="1" stop-color="#E76801"/>
</linearGradient>
<linearGradient id="paint55_linear_884_5065" x1="-12.4671" y1="40.7063" x2="6.84458" y2="22.7196" gradientUnits="userSpaceOnUse">
<stop stop-color="#E06200"/>
<stop offset="1" stop-color="#EF7300"/>
</linearGradient>
<linearGradient id="paint56_linear_884_5065" x1="27.5525" y1="17.7829" x2="50.8801" y2="-8.75606" gradientUnits="userSpaceOnUse">
<stop stop-color="#ED7B00"/>
<stop offset="1" stop-color="#FFA211"/>
</linearGradient>
<linearGradient id="paint57_linear_884_5065" x1="37.7125" y1="17.1246" x2="69.7604" y2="-1.15995" gradientUnits="userSpaceOnUse">
<stop stop-color="#F47F03"/>
<stop offset="1" stop-color="#F98D05"/>
</linearGradient>
<linearGradient id="paint58_linear_884_5065" x1="23.8525" y1="0.116559" x2="37.7018" y2="-9.49511" gradientUnits="userSpaceOnUse">
<stop stop-color="#FFB221"/>
<stop offset="1" stop-color="#FF9E0F"/>
</linearGradient>
<linearGradient id="paint59_linear_884_5065" x1="-15.9475" y1="123.761" x2="12.6857" y2="100.067" gradientUnits="userSpaceOnUse">
<stop stop-color="#C35807"/>
<stop offset="1" stop-color="#A23400"/>
</linearGradient>
<linearGradient id="paint60_linear_884_5065" x1="-1.50777" y1="105.945" x2="15.8476" y2="92.9549" gradientUnits="userSpaceOnUse">
<stop stop-color="#B14400"/>
<stop offset="1" stop-color="#AF3D00"/>
</linearGradient>
<linearGradient id="paint61_linear_884_5065" x1="-16.6077" y1="94.5932" x2="7.30148" y2="73.6582" gradientUnits="userSpaceOnUse">
<stop stop-color="#C14800"/>
<stop offset="1" stop-color="#B94100"/>
</linearGradient>
<linearGradient id="paint62_linear_884_5065" x1="38.0326" y1="51.1007" x2="71.526" y2="27.8167" gradientUnits="userSpaceOnUse">
<stop stop-color="#EF7300"/>
<stop offset="1" stop-color="#FF9006"/>
</linearGradient>
<linearGradient id="paint63_linear_884_5065" x1="51.4728" y1="47.9784" x2="83.0685" y2="31.3756" gradientUnits="userSpaceOnUse">
<stop stop-color="#FFA10C"/>
<stop offset="1" stop-color="#FF8D08"/>
</linearGradient>
<linearGradient id="paint64_linear_884_5065" x1="38.0326" y1="54.3726" x2="76.4668" y2="33.0429" gradientUnits="userSpaceOnUse">
<stop stop-color="#FF9C04"/>
<stop offset="1" stop-color="#FB8A03"/>
</linearGradient>
<linearGradient id="paint65_linear_884_5065" x1="38.4929" y1="115.202" x2="47.5311" y2="102.461" gradientUnits="userSpaceOnUse">
<stop stop-color="#A23C00"/>
<stop offset="1" stop-color="#A73D00"/>
</linearGradient>
<linearGradient id="paint66_linear_884_5065" x1="29.0125" y1="113.606" x2="45.1711" y2="103.154" gradientUnits="userSpaceOnUse">
<stop stop-color="#B64900"/>
<stop offset="1" stop-color="#C14E00"/>
</linearGradient>
<linearGradient id="paint67_linear_884_5065" x1="40.2127" y1="113.507" x2="55.0152" y2="97.6378" gradientUnits="userSpaceOnUse">
<stop stop-color="#AF4200"/>
<stop offset="1" stop-color="#C04F00"/>
</linearGradient>
<linearGradient id="paint68_linear_884_5065" x1="37.5927" y1="104.938" x2="47.4644" y2="90.2201" gradientUnits="userSpaceOnUse">
<stop stop-color="#E46900"/>
<stop offset="1" stop-color="#C04D00"/>
</linearGradient>
<linearGradient id="paint69_linear_884_5065" x1="29.0725" y1="106.444" x2="37.6591" y2="94.5869" gradientUnits="userSpaceOnUse">
<stop stop-color="#C85100"/>
<stop offset="1" stop-color="#B64700"/>
</linearGradient>
<linearGradient id="paint70_linear_884_5065" x1="38.7425" y1="64.8467" x2="47.0316" y2="47.3456" gradientUnits="userSpaceOnUse">
<stop stop-color="#CF5800"/>
<stop offset="1" stop-color="#E46C00"/>
</linearGradient>
<linearGradient id="paint71_linear_884_5065" x1="34.9725" y1="75.66" x2="52.8865" y2="53.535" gradientUnits="userSpaceOnUse">
<stop stop-color="#EB6C00"/>
<stop offset="1" stop-color="#E96D00"/>
</linearGradient>
<linearGradient id="paint72_linear_884_5065" x1="-11.9271" y1="43.9184" x2="15.9281" y2="24.0588" gradientUnits="userSpaceOnUse">
<stop stop-color="#D25C00"/>
<stop offset="1" stop-color="#ED7400"/>
</linearGradient>
<linearGradient id="paint73_linear_884_5065" x1="1.86313" y1="39.1601" x2="30.7946" y2="17.8933" gradientUnits="userSpaceOnUse">
<stop stop-color="#E96C00"/>
<stop offset="1" stop-color="#FD8703"/>
</linearGradient>
<linearGradient id="paint74_linear_884_5065" x1="-15.3871" y1="24.4265" x2="-8.91888" y2="9.36912" gradientUnits="userSpaceOnUse">
<stop stop-color="#FF8701"/>
<stop offset="1" stop-color="#F87A00"/>
</linearGradient>
<linearGradient id="paint75_linear_884_5065" x1="-8.0075" y1="18.561" x2="-5.62347" y2="8.90671" gradientUnits="userSpaceOnUse">
<stop stop-color="#F27400"/>
<stop offset="1" stop-color="#F98100"/>
</linearGradient>
<linearGradient id="paint76_linear_884_5065" x1="12.2928" y1="19.8378" x2="23.9943" y2="2.24224" gradientUnits="userSpaceOnUse">
<stop stop-color="#FFB41A"/>
<stop offset="1" stop-color="#FFAA14"/>
</linearGradient>
<linearGradient id="paint77_linear_884_5065" x1="-3.76742" y1="20.6359" x2="8.86315" y2="4.31503" gradientUnits="userSpaceOnUse">
<stop stop-color="#F98701"/>
<stop offset="1" stop-color="#FF9907"/>
</linearGradient>
<linearGradient id="paint78_linear_884_5065" x1="10.2728" y1="16.2867" x2="18.4001" y2="13.4463" gradientUnits="userSpaceOnUse">
<stop stop-color="#FFB921"/>
<stop offset="1" stop-color="#FFA712"/>
</linearGradient>
<linearGradient id="paint79_linear_884_5065" x1="5.12313" y1="132.879" x2="8.28461" y2="112.296" gradientUnits="userSpaceOnUse">
<stop stop-color="#B45C08"/>
<stop offset="1" stop-color="#933800"/>
</linearGradient>
<linearGradient id="paint80_linear_884_5065" x1="47.8926" y1="131.502" x2="63.652" y2="117.842" gradientUnits="userSpaceOnUse">
<stop stop-color="#933400"/>
<stop offset="1" stop-color="#973900"/>
</linearGradient>
<linearGradient id="paint81_linear_884_5065" x1="53.5727" y1="130.764" x2="74.7496" y2="110.505" gradientUnits="userSpaceOnUse">
<stop stop-color="#A24B00"/>
<stop offset="1" stop-color="#9E3F00"/>
</linearGradient>
<linearGradient id="paint82_linear_884_5065" x1="17.833" y1="73.5752" x2="27.6976" y2="61.9689" gradientUnits="userSpaceOnUse">
<stop stop-color="#D45401"/>
<stop offset="1" stop-color="#E06000"/>
</linearGradient>
<linearGradient id="paint83_linear_884_5065" x1="20.7225" y1="73.7149" x2="33.5189" y2="66.4508" gradientUnits="userSpaceOnUse">
<stop stop-color="#B94100"/>
<stop offset="1" stop-color="#CF5300"/>
</linearGradient>
<linearGradient id="paint84_linear_884_5065" x1="14.0026" y1="68.5376" x2="21.7003" y2="65.6781" gradientUnits="userSpaceOnUse">
<stop stop-color="#C04A00"/>
<stop offset="1" stop-color="#E26500"/>
</linearGradient>
<linearGradient id="paint85_linear_884_5065" x1="14.3926" y1="61.8542" x2="18.4887" y2="54.2427" gradientUnits="userSpaceOnUse">
<stop stop-color="#E96C00"/>
<stop offset="1" stop-color="#D75A00"/>
</linearGradient>
<linearGradient id="paint86_linear_884_5065" x1="26.7925" y1="1.81256" x2="26.7925" y2="125.008" gradientUnits="userSpaceOnUse">
<stop stop-color="#00D2FF"/>
<stop offset="1" stop-color="#34B3F0"/>
</linearGradient>
</defs>
</svg>
